<svg width="1312" height="815" viewBox="0 0 1312 815" fill="none" xmlns="http://www.w3.org/2000/svg">
<path d="M1160.5 604C1160.5 817 1092 788.667 445 788.667H175C92.1567 788.667 25 721.463 25 638.563C25 577.01 62.0233 520.163 115 497C120.61 399.417 202.2 322 302.023 322C379.953 322 446.769 371.546 475 438.667C849.5 449 1160.5 411.5 1160.5 604Z" fill="#E8ECF0" stroke="#B5C0CA" stroke-width="50" stroke-linecap="round" stroke-linejoin="round"/>
<path d="M902.333 322.733C902.333 471.436 720.333 579.193 657.047 612.166C650.203 615.733 646.78 617.516 642.033 618.44C638.333 619.16 633 619.16 629.3 618.44C624.553 617.516 621.13 615.733 614.287 612.166C550.999 579.193 369 471.436 369 322.733V196.654C369 170.003 369 156.678 373.359 145.224C377.209 135.105 383.466 126.076 391.589 118.918C400.783 110.815 413.26 106.136 438.213 96.7782L616.94 29.7558C623.87 27.1572 627.333 25.8578 630.9 25.3425C634.06 24.8858 637.273 24.8858 640.433 25.3425C644 25.8578 647.463 27.1572 654.393 29.7558L833.12 96.7782C858.073 106.136 870.55 110.815 879.743 118.918C887.867 126.076 894.123 135.105 897.973 145.224C902.333 156.678 902.333 170.003 902.333 196.654V322.733Z" fill="#8875E0" stroke="#6A56C5" stroke-width="50" stroke-linecap="round" stroke-linejoin="round"/>
<path d="M743.19 268.8H677.356L690.087 192.407C690.465 190.142 690.346 187.822 689.737 185.608C689.128 183.394 688.043 181.339 686.559 179.587C685.075 177.835 683.228 176.427 681.144 175.462C679.061 174.497 676.793 173.998 674.497 174H593.121C589.384 174.001 585.769 175.327 582.918 177.743C580.066 180.158 578.163 183.507 577.547 187.193L551.216 345.193C550.838 347.457 550.957 349.776 551.565 351.989C552.173 354.202 553.256 356.255 554.739 358.007C556.221 359.759 558.067 361.167 560.148 362.133C562.229 363.099 564.496 363.599 566.79 363.6H629.971V490L756.489 293.148C758.024 290.76 758.888 288.002 758.99 285.165C759.091 282.328 758.427 279.516 757.066 277.024C755.705 274.533 753.698 272.454 751.256 271.007C748.814 269.56 746.028 268.797 743.19 268.8Z" fill="#4B38A4"/>
<path d="M687 611.31C687 709.813 767.589 789.667 867 789.667H1137C1219.84 789.667 1287 722.463 1287 639.563C1287 578.01 1249.98 521.163 1197 498C1191.39 400.417 1109.8 323 1009.98 323C932.047 323 865.231 372.546 837 439.667C747 454.25 687 529.67 687 611.31Z" fill="#E8ECF0" stroke="#B5C0CA" stroke-width="50" stroke-linecap="round" stroke-linejoin="round"/>
</svg>
