<svg width="584" height="644" viewBox="0 0 584 644" fill="none" xmlns="http://www.w3.org/2000/svg">
<path d="M558.338 322.733C558.338 471.436 376.338 579.193 313.051 612.166C306.208 615.733 302.785 617.516 298.038 618.44C294.338 619.16 289.005 619.16 285.305 618.44C280.558 617.516 277.135 615.733 270.291 612.166C207.003 579.193 25.0048 471.436 25.0048 322.733V196.654C25.0048 170.003 25.0048 156.678 29.3634 145.224C33.2138 135.105 39.4708 126.076 47.5934 118.918C56.7881 110.815 69.2648 106.136 94.2181 96.7782L272.945 29.7558C279.875 27.1572 283.338 25.8578 286.905 25.3425C290.065 24.8858 293.278 24.8858 296.438 25.3425C300.005 25.8578 303.468 27.1572 310.398 29.7558L489.125 96.7782C514.078 106.136 526.555 110.815 535.748 118.918C543.871 126.076 550.128 135.105 553.978 145.224C558.338 156.678 558.338 170.003 558.338 196.654V322.733Z" fill="#8875E0" stroke="#6A56C5" stroke-width="50" stroke-linecap="round" stroke-linejoin="round"/>
<path d="M399.194 268.8H333.361L346.091 192.407C346.47 190.142 346.351 187.822 345.742 185.608C345.133 183.394 344.048 181.339 342.564 179.587C341.08 177.835 339.232 176.427 337.149 175.462C335.066 174.497 332.797 173.998 330.502 174H249.126C245.389 174.001 241.774 175.327 238.923 177.743C236.071 180.158 234.168 183.507 233.552 187.193L207.221 345.193C206.843 347.457 206.962 349.776 207.57 351.989C208.178 354.202 209.261 356.255 210.743 358.007C212.225 359.759 214.071 361.167 216.153 362.133C218.234 363.099 220.501 363.599 222.795 363.6H285.975V490L412.494 293.148C414.029 290.76 414.893 288.002 414.995 285.165C415.096 282.328 414.432 279.516 413.071 277.024C411.71 274.533 409.703 272.454 407.261 271.007C404.819 269.56 402.033 268.797 399.194 268.8Z" fill="#4B38A4"/>
</svg>
