<svg width="805" height="805" viewBox="0 0 805 805" fill="none" xmlns="http://www.w3.org/2000/svg">
<circle cx="402.5" cy="402.5" r="402.5" fill="#0A0E27"/>
<path d="M668.333 402.733C668.333 551.436 486.333 659.193 423.047 692.166C416.203 695.733 412.78 697.516 408.033 698.44C404.333 699.16 399 699.16 395.3 698.44C390.553 697.516 387.13 695.733 380.287 692.166C316.999 659.193 135 551.436 135 402.733V276.654C135 250.003 135 236.678 139.359 225.224C143.209 215.105 149.466 206.076 157.589 198.918C166.783 190.815 179.26 186.136 204.213 176.778L382.94 109.756C389.87 107.157 393.333 105.858 396.9 105.343C400.06 104.886 403.273 104.886 406.433 105.343C410 105.858 413.463 107.157 420.393 109.756L599.12 176.778C624.073 186.136 636.55 190.815 645.743 198.918C653.867 206.076 660.123 215.105 663.973 225.224C668.333 236.678 668.333 250.003 668.333 276.654V402.733Z" fill="#8875E0"/>
<path d="M509.19 348.8H443.356L456.087 272.407C456.465 270.142 456.346 267.822 455.737 265.608C455.128 263.394 454.043 261.339 452.559 259.587C451.075 257.835 449.228 256.427 447.144 255.462C445.061 254.497 442.793 253.998 440.497 254H359.121C355.384 254.001 351.769 255.327 348.918 257.743C346.066 260.158 344.163 263.507 343.547 267.193L317.216 425.193C316.838 427.457 316.957 429.776 317.565 431.989C318.173 434.202 319.256 436.255 320.739 438.007C322.221 439.759 324.067 441.167 326.148 442.133C328.229 443.099 330.496 443.599 332.79 443.6H395.971V570L522.489 373.148C524.024 370.76 524.888 368.002 524.99 365.165C525.091 362.328 524.427 359.516 523.066 357.024C521.705 354.533 519.698 352.454 517.256 351.007C514.814 349.56 512.028 348.797 509.19 348.8Z" fill="#4B38A4"/>
</svg>
