<svg width="176" height="76" viewBox="0 0 176 76" fill="none" xmlns="http://www.w3.org/2000/svg">
<path d="M17.2188 0.78125L17.0625 7.40625L12.4062 7.59375L11.2188 22.4062L4.625 22.75L4.65625 7.9375L0 8.1875L0.1875 0.8125L17.2188 0.78125ZM37.585 23.125L29.7725 23.5L29.71 16.2812H26.1162L25.8975 23.125H18.8975L19.4912 1.15625L26.9287 1.5L26.46 12.7188H29.9287L29.96 0.65625L37.085 0.84375L37.585 23.125ZM54.8262 0.59375C54.7637 1.57292 54.7065 2.54167 54.6544 3.5C54.6023 4.45833 54.5346 5.42708 54.4512 6.40625L47.8262 6.75L47.67 8.71875H52.3262L51.9825 13.5625L47.295 13.7188L47.1387 16H51.0137H53.7637C53.7012 17.1458 53.6335 18.2865 53.5606 19.4219C53.4981 20.5469 53.4408 21.6771 53.3887 22.8125L39.92 23.125L40.42 0.59375H54.8262ZM81.2463 10.7188C81.2463 12.1771 81.0588 13.4948 80.6838 14.6719C80.3088 15.8385 79.7827 16.8802 79.1056 17.7969C78.439 18.7031 77.6421 19.4844 76.715 20.1406C75.7879 20.7969 74.7723 21.3385 73.6681 21.7656C72.564 22.1823 71.3869 22.4948 70.1369 22.7031C68.8973 22.901 67.6213 23 66.3088 23C65.8192 23 65.34 22.9896 64.8713 22.9688C64.4025 22.9375 63.9233 22.8958 63.4338 22.8438L63.8713 1.875C65.0171 1.51042 66.1942 1.25521 67.4025 1.10938C68.6213 0.953125 69.8296 0.875 71.0275 0.875C72.5171 0.875 73.8869 1.09896 75.1369 1.54688C76.3869 1.99479 77.465 2.64062 78.3713 3.48438C79.2775 4.32812 79.9806 5.35938 80.4806 6.57812C80.991 7.79688 81.2463 9.17708 81.2463 10.7188ZM74.84 11.7188C74.8504 11.1562 74.7879 10.6146 74.6525 10.0938C74.5275 9.57292 74.314 9.11458 74.0119 8.71875C73.7202 8.3125 73.3452 7.98958 72.8869 7.75C72.4285 7.5 71.8817 7.36458 71.2463 7.34375L70.6213 17.0312C71.2463 16.9375 71.814 16.7344 72.3244 16.4219C72.8348 16.099 73.2723 15.7083 73.6369 15.25C74.0119 14.7812 74.2983 14.2656 74.4963 13.7031C74.7046 13.1302 74.8192 12.5417 74.84 11.9375V11.7188ZM91.5969 1.125L89.8781 22.4062L83.2844 22.75V1.5625L91.5969 1.125ZM112.354 19.9375C111.864 20.5521 111.26 21.0885 110.541 21.5469C109.823 22.0052 109.052 22.3854 108.229 22.6875C107.406 22.9896 106.562 23.2135 105.698 23.3594C104.833 23.5156 104.01 23.5938 103.229 23.5938C101.718 23.5938 100.328 23.3229 99.0569 22.7812C97.786 22.2396 96.6871 21.4948 95.76 20.5469C94.8433 19.5885 94.1246 18.4635 93.6038 17.1719C93.0829 15.8802 92.8225 14.4896 92.8225 13C92.8225 11.8646 92.9527 10.7552 93.2131 9.67188C93.4735 8.57812 93.8433 7.55208 94.3225 6.59375C94.8121 5.625 95.4058 4.73958 96.1038 3.9375C96.8017 3.125 97.5933 2.42708 98.4788 1.84375C99.3642 1.26042 100.333 0.807292 101.385 0.484375C102.437 0.161458 103.562 0 104.76 0C105.208 0 105.687 0.0208333 106.198 0.0625C106.708 0.09375 107.213 0.15625 107.713 0.25C108.224 0.333333 108.718 0.453125 109.198 0.609375C109.677 0.765625 110.114 0.958333 110.51 1.1875L110.073 7.15625C109.489 6.9375 108.885 6.79167 108.26 6.71875C107.645 6.63542 107.041 6.59375 106.448 6.59375C105.614 6.59375 104.833 6.72396 104.104 6.98438C103.385 7.23438 102.755 7.59896 102.213 8.07812C101.682 8.55729 101.26 9.14062 100.948 9.82812C100.635 10.5156 100.479 11.2917 100.479 12.1562C100.479 12.6979 100.552 13.224 100.698 13.7344C100.843 14.2344 101.062 14.6823 101.354 15.0781C101.656 15.4635 102.026 15.776 102.463 16.0156C102.911 16.2552 103.427 16.375 104.01 16.375C104.406 16.375 104.812 16.3229 105.229 16.2188C105.656 16.1146 106.02 15.9375 106.323 15.6875L106.385 14.4688L102.635 14.4062L102.823 9.71875C104.375 9.66667 105.927 9.625 107.479 9.59375C109.031 9.55208 110.593 9.5 112.166 9.4375L112.354 19.9375ZM122.954 1.125L121.236 22.4062L114.642 22.75V1.5625L122.954 1.125ZM141.524 0.78125L141.368 7.40625L136.711 7.59375L135.524 22.4062L128.93 22.75L128.961 7.9375L124.305 8.1875L124.493 0.8125L141.524 0.78125ZM160.89 21.7812L153.14 22.7812L152.202 19.25H148.64L147.859 22.7812L139.89 22L146.109 1.1875L154.796 0.75L160.89 21.7812ZM151.64 14.4688L150.452 9.03125L149.296 14.4688H151.64ZM175.913 14.2188L175.256 21.1562L162.1 22.1875C162.163 18.5521 162.23 14.9375 162.303 11.3438C162.386 7.75 162.485 4.13542 162.6 0.5H170.725C170.485 2.78125 170.256 5.0625 170.038 7.34375C169.819 9.61458 169.663 11.9062 169.569 14.2188C170.058 14.2396 170.543 14.25 171.022 14.25C171.501 14.25 171.985 14.25 172.475 14.25C173.058 14.25 173.631 14.2448 174.194 14.2344C174.756 14.224 175.329 14.2188 175.913 14.2188ZM32.0218 61.6172C32.0218 63.9362 31.6155 65.9674 30.803 67.7109C30.0075 69.4375 28.9072 70.8763 27.5023 72.0273C26.1142 73.1784 24.4808 74.0417 22.6019 74.6172C20.7399 75.1927 18.734 75.4805 16.5843 75.4805C15.7549 75.4805 14.8408 75.3704 13.8421 75.1504C12.8603 74.9303 11.8616 74.6595 10.846 74.3379C9.83039 73.9993 8.84862 73.6439 7.9007 73.2715C6.96971 72.8822 6.14029 72.5182 5.41242 72.1797L6.52961 61.7188C7.96841 62.582 9.55956 63.2422 11.303 63.6992C13.0635 64.1393 14.79 64.3594 16.4827 64.3594C16.8043 64.3594 17.1937 64.3509 17.6507 64.334C18.1077 64.3001 18.5394 64.224 18.9456 64.1055C19.3688 63.9701 19.7243 63.7754 20.012 63.5215C20.2998 63.2676 20.4437 62.9036 20.4437 62.4297C20.4437 62.1081 20.3421 61.8372 20.139 61.6172C19.9359 61.3802 19.6735 61.194 19.3519 61.0586C19.0303 60.9062 18.6663 60.7962 18.2601 60.7285C17.8538 60.6439 17.456 60.5846 17.0667 60.5508C16.6774 60.5169 16.3135 60.5 15.9749 60.5C15.6364 60.5 15.3655 60.5 15.1624 60.5C13.7067 60.5 12.3779 60.2461 11.1761 59.7383C9.9912 59.2305 8.96711 58.528 8.10383 57.6309C7.25747 56.7168 6.59732 55.6419 6.12336 54.4062C5.6494 53.1536 5.41242 51.7995 5.41242 50.3438C5.41242 48.3464 5.81021 46.5605 6.60578 44.9863C7.41828 43.3952 8.49315 42.0495 9.83039 40.9492C11.1846 39.832 12.7334 38.9772 14.4769 38.3848C16.2204 37.7923 18.0231 37.4961 19.8851 37.4961C20.7145 37.4961 21.5693 37.5299 22.4495 37.5977C23.3297 37.6484 24.2015 37.75 25.0648 37.9023C25.945 38.0547 26.7998 38.2493 27.6292 38.4863C28.4586 38.7233 29.2458 39.0195 29.9905 39.375L29.0257 49.6836C27.8747 49.2943 26.6644 48.9727 25.3948 48.7188C24.1422 48.4479 22.915 48.3125 21.7132 48.3125C21.4932 48.3125 21.2054 48.321 20.8499 48.3379C20.5114 48.3379 20.1474 48.3633 19.7581 48.4141C19.3857 48.4479 19.0049 48.5072 18.6155 48.5918C18.2262 48.6764 17.8792 48.7949 17.5745 48.9473C17.2698 49.0827 17.0244 49.2689 16.8382 49.5059C16.652 49.7428 16.5674 50.0221 16.5843 50.3438C16.6012 50.7161 16.7366 51.0208 16.9905 51.2578C17.2614 51.4779 17.5999 51.6556 18.0062 51.791C18.4293 51.9095 18.8864 51.9941 19.3773 52.0449C19.8851 52.0957 20.3844 52.1296 20.8753 52.1465C21.3662 52.1465 21.8232 52.1465 22.2464 52.1465C22.6696 52.1296 23.0166 52.138 23.2874 52.1719C24.6416 52.2565 25.8603 52.5443 26.9437 53.0352C28.027 53.526 28.9411 54.1777 29.6859 54.9902C30.4476 55.8027 31.0231 56.776 31.4124 57.9102C31.8187 59.0273 32.0218 60.263 32.0218 61.6172ZM61.4353 38.8164L61.1814 49.582L53.615 49.8867L51.6853 73.957L40.9705 74.5156L41.0212 50.4453L33.4548 50.8516L33.7595 38.8672L61.4353 38.8164ZM94.759 57.1992C94.759 58.7396 94.5812 60.2292 94.2258 61.668C93.8703 63.0898 93.354 64.4271 92.677 65.6797C92.0168 66.9323 91.2043 68.0833 90.2395 69.1328C89.2915 70.1654 88.2167 71.054 87.0148 71.7988C85.8299 72.5436 84.535 73.1276 83.1301 73.5508C81.7251 73.957 80.2355 74.1602 78.6613 74.1602C77.1379 74.1602 75.6822 73.9655 74.2941 73.5762C72.923 73.1868 71.6366 72.6452 70.4348 71.9512C69.2329 71.2402 68.1411 70.3939 67.1594 69.4121C66.1945 68.4134 65.3651 67.3132 64.6711 66.1113C63.994 64.8926 63.4608 63.5892 63.0715 62.2012C62.6991 60.8132 62.5129 59.3659 62.5129 57.8594C62.5129 56.3867 62.6906 54.9479 63.0461 53.543C63.4016 52.1211 63.9094 50.7839 64.5695 49.5312C65.2466 48.2786 66.0591 47.1276 67.007 46.0781C67.9549 45.0286 69.0129 44.123 70.1809 43.3613C71.3658 42.5996 72.6437 42.0072 74.0148 41.584C75.3859 41.1608 76.8332 40.9492 78.3566 40.9492C80.8111 40.9492 83.0454 41.3301 85.0598 42.0918C87.091 42.8535 88.8176 43.9453 90.2395 45.3672C91.6783 46.7721 92.787 48.4818 93.5656 50.4961C94.3612 52.4935 94.759 54.7279 94.759 57.1992ZM83.4855 57.8594C83.4855 57.1315 83.3755 56.429 83.1555 55.752C82.9523 55.0579 82.6477 54.4486 82.2414 53.9238C81.8352 53.3822 81.3273 52.9505 80.718 52.6289C80.1255 52.2904 79.44 52.1211 78.6613 52.1211C77.8658 52.1211 77.1548 52.265 76.5285 52.5527C75.9022 52.8405 75.3605 53.2383 74.9035 53.7461C74.4634 54.237 74.1249 54.821 73.8879 55.498C73.6509 56.1582 73.5324 56.8607 73.5324 57.6055C73.5324 58.3164 73.634 59.0273 73.8371 59.7383C74.0402 60.4492 74.3449 61.0924 74.7512 61.668C75.1574 62.2435 75.6568 62.709 76.2492 63.0645C76.8586 63.4199 77.5611 63.5977 78.3566 63.5977C79.1522 63.5977 79.8632 63.4453 80.4895 63.1406C81.1327 62.819 81.6743 62.3958 82.1145 61.8711C82.5546 61.3294 82.8931 60.7116 83.1301 60.0176C83.3671 59.3236 83.4855 58.6042 83.4855 57.8594ZM127.854 50.6484C127.854 51.9688 127.736 53.1706 127.499 54.2539C127.279 55.3203 126.923 56.3021 126.432 57.1992C125.941 58.0964 125.307 58.9258 124.528 59.6875C123.749 60.4492 122.81 61.1771 121.71 61.8711L127.753 72.6367L116.327 74.8711L112.417 64.0547L109.268 64.1562L108.811 74.7188H97.8932C97.9778 70.8594 98.054 67.0169 98.1217 63.1914C98.2064 59.3659 98.2995 55.5234 98.401 51.6641C98.4349 49.7174 98.4687 47.7878 98.5026 45.875C98.5364 43.9622 98.6041 42.0326 98.7057 40.0859C99.8906 39.6458 101.059 39.2819 102.21 38.9941C103.361 38.7064 104.512 38.4863 105.663 38.334C106.831 38.1647 108.007 38.0547 109.192 38.0039C110.394 37.9362 111.621 37.9023 112.874 37.9023C114.803 37.9023 116.665 38.1732 118.46 38.7148C120.271 39.2396 121.87 40.0352 123.258 41.1016C124.646 42.168 125.755 43.4967 126.585 45.0879C127.431 46.679 127.854 48.5326 127.854 50.6484ZM116.479 51.4609C116.479 50.75 116.378 50.0983 116.174 49.5059C115.988 48.9134 115.7 48.4056 115.311 47.9824C114.939 47.5423 114.465 47.2038 113.889 46.9668C113.331 46.7129 112.671 46.5859 111.909 46.5859C111.57 46.5859 111.24 46.6113 110.919 46.6621C110.597 46.696 110.284 46.7552 109.979 46.8398L109.573 56.2852H110.182C110.91 56.2852 111.646 56.1921 112.391 56.0059C113.153 55.8197 113.83 55.5319 114.423 55.1426C115.032 54.7533 115.523 54.2539 115.895 53.6445C116.284 53.0352 116.479 52.3073 116.479 51.4609ZM170.445 38.1055L168.109 75.3789L156.531 75.8867L156.633 56.2344L151.402 72.0781H146.934L142.922 57.9102L142.871 74.3633L131.141 74.7188L131.649 39.6289L144.699 39.1211L149.879 55.9297L156.785 38.1055H170.445Z" fill="white"/>
</svg>
