<svg width="724" height="644" viewBox="0 0 724 644" fill="none" xmlns="http://www.w3.org/2000/svg">
<path d="M639.833 322.733C639.833 471.436 457.833 579.193 394.547 612.166C387.703 615.733 384.28 617.516 379.533 618.44C375.833 619.16 370.5 619.16 366.8 618.44C362.053 617.516 358.63 615.733 351.787 612.166C288.499 579.193 106.5 471.436 106.5 322.733V196.654C106.5 170.003 106.5 156.678 110.859 145.224C114.709 135.105 120.966 126.076 129.089 118.918C138.283 110.815 150.76 106.136 175.713 96.7782L354.44 29.7558C361.37 27.1572 364.833 25.8578 368.4 25.3425C371.56 24.8858 374.773 24.8858 377.933 25.3425C381.5 25.8578 384.963 27.1572 391.893 29.7558L570.62 96.7782C595.573 106.136 608.05 110.815 617.243 118.918C625.367 126.076 631.623 135.105 635.473 145.224C639.833 156.678 639.833 170.003 639.833 196.654V322.733Z" fill="#8875E0" stroke="#6A56C5" stroke-width="50" stroke-linecap="round" stroke-linejoin="round"/>
<path d="M480.69 268.8H414.856L427.587 192.407C427.965 190.142 427.846 187.822 427.237 185.608C426.628 183.394 425.543 181.339 424.059 179.587C422.575 177.835 420.728 176.427 418.644 175.462C416.561 174.497 414.293 173.998 411.997 174H330.621C326.884 174.001 323.269 175.327 320.418 177.743C317.566 180.158 315.663 183.507 315.047 187.193L288.716 345.193C288.338 347.457 288.457 349.776 289.065 351.989C289.673 354.202 290.756 356.255 292.239 358.007C293.721 359.759 295.567 361.167 297.648 362.133C299.729 363.099 301.996 363.599 304.29 363.6H367.471V490L493.989 293.148C495.524 290.76 496.388 288.002 496.49 285.165C496.591 282.328 495.927 279.516 494.566 277.024C493.205 274.533 491.198 272.454 488.756 271.007C486.314 269.56 483.528 268.797 480.69 268.8Z" fill="#4B38A4"/>
<path d="M618 394.333V456.667M618 394.333L659.556 352.778M618 394.333L576.444 352.778M618 394.333V332M618 456.667L659.556 498.222M618 456.667L576.444 498.222M618 456.667V519M524.5 425.5H586.833M586.833 425.5L545.278 383.944M586.833 425.5L545.278 467.056M586.833 425.5H649.167M711.5 425.5H649.167M649.167 425.5L690.722 383.944M649.167 425.5L690.722 467.056" stroke="#E8ECF0" stroke-width="25" stroke-linecap="round" stroke-linejoin="round"/>
<path d="M106 116.333V178.667M106 116.333L147.556 74.7778M106 116.333L64.4444 74.7778M106 116.333V54M106 178.667L147.556 220.222M106 178.667L64.4444 220.222M106 178.667V241M12.5 147.5H74.8333M74.8333 147.5L33.2778 105.944M74.8333 147.5L33.2778 189.056M74.8333 147.5H137.167M199.5 147.5H137.167M137.167 147.5L178.722 105.944M137.167 147.5L178.722 189.056" stroke="#E8ECF0" stroke-width="25" stroke-linecap="round" stroke-linejoin="round"/>
</svg>
